<mxfile host="Electron" agent="Mozilla/5.0 (Windows NT 10.0; Win64; x64) AppleWebKit/537.36 (KHTML, like Gecko) draw.io/28.2.5 Chrome/138.0.7204.251 Electron/37.6.1 Safari/537.36" version="28.2.5">
  <diagram id="NRd7_bXsy0zIB8I4QVWe" name="Page-1">
    <mxGraphModel dx="2037" dy="1270" grid="1" gridSize="10" guides="1" tooltips="1" connect="1" arrows="1" fold="1" page="1" pageScale="1" pageWidth="1169" pageHeight="827" math="0" shadow="0">
      <root>
        <mxCell id="0" />
        <mxCell id="1" parent="0" />
        <mxCell id="xSST-Lpuv2nntPSCbOYB-3" value="" style="verticalLabelPosition=bottom;html=1;verticalAlign=top;align=center;shape=mxgraph.floorplan.wallCorner;fillColor=strokeColor;" vertex="1" parent="1">
          <mxGeometry x="99" y="10" width="30" height="180" as="geometry" />
        </mxCell>
        <mxCell id="xSST-Lpuv2nntPSCbOYB-4" value="" style="verticalLabelPosition=bottom;html=1;verticalAlign=top;align=center;shape=mxgraph.floorplan.wallCorner;fillColor=strokeColor;rotation=-180;" vertex="1" parent="1">
          <mxGeometry x="469" y="160" width="40" height="180" as="geometry" />
        </mxCell>
        <mxCell id="xSST-Lpuv2nntPSCbOYB-5" value="" style="verticalLabelPosition=bottom;html=1;verticalAlign=top;align=center;shape=mxgraph.floorplan.wall;fillColor=strokeColor;" vertex="1" parent="1">
          <mxGeometry x="229" y="10" width="30" height="10" as="geometry" />
        </mxCell>
        <mxCell id="xSST-Lpuv2nntPSCbOYB-6" value="" style="verticalLabelPosition=bottom;html=1;verticalAlign=top;align=center;shape=mxgraph.floorplan.wall;fillColor=strokeColor;" vertex="1" parent="1">
          <mxGeometry x="349" y="10" width="30" height="10" as="geometry" />
        </mxCell>
        <mxCell id="xSST-Lpuv2nntPSCbOYB-7" value="" style="verticalLabelPosition=bottom;html=1;verticalAlign=top;align=center;shape=mxgraph.floorplan.wallCorner;fillColor=strokeColor;direction=south;" vertex="1" parent="1">
          <mxGeometry x="479" y="10" width="30" height="150" as="geometry" />
        </mxCell>
        <mxCell id="xSST-Lpuv2nntPSCbOYB-8" value="" style="verticalLabelPosition=bottom;html=1;verticalAlign=top;align=center;shape=mxgraph.floorplan.wallCorner;fillColor=strokeColor;direction=north;fontStyle=1" vertex="1" parent="1">
          <mxGeometry x="99" y="180" width="140" height="160" as="geometry" />
        </mxCell>
        <mxCell id="xSST-Lpuv2nntPSCbOYB-9" value="" style="verticalLabelPosition=bottom;html=1;verticalAlign=top;align=center;shape=mxgraph.floorplan.windowGlider;dx=0.25;" vertex="1" parent="1">
          <mxGeometry x="239" y="330" width="230" height="10" as="geometry" />
        </mxCell>
        <mxCell id="xSST-Lpuv2nntPSCbOYB-10" value="" style="verticalLabelPosition=bottom;html=1;verticalAlign=top;align=center;shape=mxgraph.floorplan.window;" vertex="1" parent="1">
          <mxGeometry x="129" y="10" width="100" height="10" as="geometry" />
        </mxCell>
        <mxCell id="xSST-Lpuv2nntPSCbOYB-11" value="" style="verticalLabelPosition=bottom;html=1;verticalAlign=top;align=center;shape=mxgraph.floorplan.window;" vertex="1" parent="1">
          <mxGeometry x="259" y="10" width="90" height="10" as="geometry" />
        </mxCell>
        <mxCell id="xSST-Lpuv2nntPSCbOYB-12" value="" style="verticalLabelPosition=bottom;html=1;verticalAlign=top;align=center;shape=mxgraph.floorplan.window;" vertex="1" parent="1">
          <mxGeometry x="379" y="10" width="100" height="10" as="geometry" />
        </mxCell>
        <mxCell id="xSST-Lpuv2nntPSCbOYB-13" value="" style="verticalLabelPosition=bottom;html=1;verticalAlign=top;align=center;shape=mxgraph.floorplan.office_chair;shadow=0;fillColor=#fad9d5;strokeColor=#ae4132;" vertex="1" parent="1">
          <mxGeometry x="179" y="96" width="40" height="43" as="geometry" />
        </mxCell>
        <mxCell id="xSST-Lpuv2nntPSCbOYB-14" value="" style="verticalLabelPosition=bottom;html=1;verticalAlign=top;align=center;shape=mxgraph.floorplan.office_chair;shadow=0;direction=west;fillColor=#fad9d5;strokeColor=#ae4132;" vertex="1" parent="1">
          <mxGeometry x="179" y="193" width="40" height="43" as="geometry" />
        </mxCell>
        <mxCell id="xSST-Lpuv2nntPSCbOYB-15" value="" style="verticalLabelPosition=bottom;html=1;verticalAlign=top;align=center;shape=mxgraph.floorplan.office_chair;shadow=0;direction=north;fillColor=#fad9d5;strokeColor=#ae4132;" vertex="1" parent="1">
          <mxGeometry x="129" y="146" width="43" height="40" as="geometry" />
        </mxCell>
        <mxCell id="xSST-Lpuv2nntPSCbOYB-17" value="" style="verticalLabelPosition=bottom;html=1;verticalAlign=top;align=center;shape=mxgraph.floorplan.office_chair;shadow=0;fillColor=#fad9d5;strokeColor=#ae4132;" vertex="1" parent="1">
          <mxGeometry x="239" y="96" width="40" height="43" as="geometry" />
        </mxCell>
        <mxCell id="xSST-Lpuv2nntPSCbOYB-18" value="" style="verticalLabelPosition=bottom;html=1;verticalAlign=top;align=center;shape=mxgraph.floorplan.office_chair;shadow=0;direction=west;fillColor=#fad9d5;strokeColor=#ae4132;" vertex="1" parent="1">
          <mxGeometry x="239" y="193" width="40" height="43" as="geometry" />
        </mxCell>
        <mxCell id="xSST-Lpuv2nntPSCbOYB-19" value="" style="verticalLabelPosition=bottom;html=1;verticalAlign=top;align=center;shape=mxgraph.floorplan.office_chair;shadow=0;fillColor=#fad9d5;strokeColor=#ae4132;" vertex="1" parent="1">
          <mxGeometry x="299" y="96" width="40" height="43" as="geometry" />
        </mxCell>
        <mxCell id="xSST-Lpuv2nntPSCbOYB-20" value="" style="verticalLabelPosition=bottom;html=1;verticalAlign=top;align=center;shape=mxgraph.floorplan.office_chair;shadow=0;direction=west;fillColor=#fad9d5;strokeColor=#ae4132;" vertex="1" parent="1">
          <mxGeometry x="299" y="193" width="40" height="43" as="geometry" />
        </mxCell>
        <mxCell id="xSST-Lpuv2nntPSCbOYB-21" value="" style="verticalLabelPosition=bottom;html=1;verticalAlign=top;align=center;shape=mxgraph.floorplan.office_chair;shadow=0;fillColor=#fad9d5;strokeColor=#ae4132;" vertex="1" parent="1">
          <mxGeometry x="359" y="96" width="40" height="43" as="geometry" />
        </mxCell>
        <mxCell id="xSST-Lpuv2nntPSCbOYB-22" value="" style="verticalLabelPosition=bottom;html=1;verticalAlign=top;align=center;shape=mxgraph.floorplan.office_chair;shadow=0;direction=west;fillColor=#fad9d5;strokeColor=#ae4132;" vertex="1" parent="1">
          <mxGeometry x="359" y="193" width="40" height="43" as="geometry" />
        </mxCell>
        <mxCell id="xSST-Lpuv2nntPSCbOYB-23" value="" style="shape=ellipse;shadow=0;html=1;fillColor=#fad9d5;strokeColor=#ae4132;" vertex="1" parent="1">
          <mxGeometry x="164" y="116" width="280" height="100" as="geometry" />
        </mxCell>
        <mxCell id="xSST-Lpuv2nntPSCbOYB-24" value="" style="verticalLabelPosition=bottom;html=1;verticalAlign=top;align=center;shape=mxgraph.floorplan.plant;fillColor=#d5e8d4;strokeColor=#82b366;" vertex="1" parent="1">
          <mxGeometry x="132" y="270" width="47" height="51" as="geometry" />
        </mxCell>
        <mxCell id="xSST-Lpuv2nntPSCbOYB-26" value="" style="verticalLabelPosition=bottom;html=1;verticalAlign=top;align=center;shape=mxgraph.floorplan.wall;fillColor=strokeColor;" vertex="1" parent="1">
          <mxGeometry x="509" y="150" width="30" height="10" as="geometry" />
        </mxCell>
        <mxCell id="xSST-Lpuv2nntPSCbOYB-27" value="" style="verticalLabelPosition=bottom;html=1;verticalAlign=top;align=center;shape=mxgraph.floorplan.wall;fillColor=strokeColor;" vertex="1" parent="1">
          <mxGeometry x="659" y="150" width="40" height="10" as="geometry" />
        </mxCell>
        <mxCell id="xSST-Lpuv2nntPSCbOYB-28" value="" style="verticalLabelPosition=bottom;html=1;verticalAlign=top;align=center;shape=mxgraph.floorplan.wall;fillColor=strokeColor;" vertex="1" parent="1">
          <mxGeometry x="819" y="150" width="40" height="10" as="geometry" />
        </mxCell>
        <mxCell id="xSST-Lpuv2nntPSCbOYB-29" value="" style="verticalLabelPosition=bottom;html=1;verticalAlign=top;align=center;shape=mxgraph.floorplan.wall;fillColor=strokeColor;" vertex="1" parent="1">
          <mxGeometry x="979" y="150" width="30" height="10" as="geometry" />
        </mxCell>
        <mxCell id="xSST-Lpuv2nntPSCbOYB-30" value="" style="verticalLabelPosition=bottom;html=1;verticalAlign=top;align=center;shape=mxgraph.floorplan.wall;fillColor=strokeColor;direction=south;" vertex="1" parent="1">
          <mxGeometry x="999" y="150" width="10" height="350" as="geometry" />
        </mxCell>
        <mxCell id="xSST-Lpuv2nntPSCbOYB-33" value="" style="verticalLabelPosition=bottom;html=1;verticalAlign=top;align=center;shape=mxgraph.floorplan.flat_tv;rotation=90;fillColor=#bac8d3;strokeColor=#23445d;" vertex="1" parent="1">
          <mxGeometry x="371.5" y="158.5" width="235" height="10" as="geometry" />
        </mxCell>
        <mxCell id="xSST-Lpuv2nntPSCbOYB-37" value="" style="verticalLabelPosition=bottom;html=1;verticalAlign=top;align=center;shape=mxgraph.floorplan.couch;rotation=-90;fillColor=#d0cee2;strokeColor=#56517e;" vertex="1" parent="1">
          <mxGeometry x="489" y="230" width="130" height="60" as="geometry" />
        </mxCell>
        <mxCell id="xSST-Lpuv2nntPSCbOYB-40" value="" style="verticalLabelPosition=bottom;html=1;verticalAlign=top;align=center;shape=mxgraph.floorplan.window;" vertex="1" parent="1">
          <mxGeometry x="539" y="150" width="120" height="10" as="geometry" />
        </mxCell>
        <mxCell id="xSST-Lpuv2nntPSCbOYB-41" value="" style="verticalLabelPosition=bottom;html=1;verticalAlign=top;align=center;shape=mxgraph.floorplan.wall;fillColor=strokeColor;" vertex="1" parent="1">
          <mxGeometry x="809" y="490" width="340" height="10" as="geometry" />
        </mxCell>
        <mxCell id="xSST-Lpuv2nntPSCbOYB-43" value="" style="verticalLabelPosition=bottom;html=1;verticalAlign=top;align=center;shape=mxgraph.floorplan.wall;fillColor=strokeColor;rotation=90;" vertex="1" parent="1">
          <mxGeometry x="694.44" y="695.44" width="239.13" height="10" as="geometry" />
        </mxCell>
        <mxCell id="xSST-Lpuv2nntPSCbOYB-44" value="" style="verticalLabelPosition=bottom;html=1;verticalAlign=top;align=center;shape=mxgraph.floorplan.wall;fillColor=strokeColor;" vertex="1" parent="1">
          <mxGeometry x="99" y="810" width="1050" height="10" as="geometry" />
        </mxCell>
        <mxCell id="xSST-Lpuv2nntPSCbOYB-45" value="" style="verticalLabelPosition=bottom;html=1;verticalAlign=top;align=center;shape=mxgraph.floorplan.wall;fillColor=strokeColor;direction=south;" vertex="1" parent="1">
          <mxGeometry x="99" y="321" width="10" height="499" as="geometry" />
        </mxCell>
        <mxCell id="xSST-Lpuv2nntPSCbOYB-46" value="" style="verticalLabelPosition=bottom;html=1;verticalAlign=top;align=center;shape=mxgraph.floorplan.wall;fillColor=strokeColor;direction=south;" vertex="1" parent="1">
          <mxGeometry x="1139" y="490" width="10" height="330" as="geometry" />
        </mxCell>
        <mxCell id="xSST-Lpuv2nntPSCbOYB-47" value="" style="verticalLabelPosition=bottom;html=1;verticalAlign=top;align=center;shape=mxgraph.floorplan.plant;fillColor=#d5e8d4;strokeColor=#82b366;" vertex="1" parent="1">
          <mxGeometry x="844.5" y="429" width="47" height="51" as="geometry" />
        </mxCell>
        <mxCell id="xSST-Lpuv2nntPSCbOYB-48" value="" style="verticalLabelPosition=bottom;html=1;verticalAlign=top;align=center;shape=mxgraph.floorplan.plant;fillColor=#d5e8d4;strokeColor=#82b366;" vertex="1" parent="1">
          <mxGeometry x="1079" y="510" width="47" height="51" as="geometry" />
        </mxCell>
        <mxCell id="xSST-Lpuv2nntPSCbOYB-49" value="" style="verticalLabelPosition=bottom;html=1;verticalAlign=top;align=center;shape=mxgraph.floorplan.desk_corner;fillColor=#b0e3e6;strokeColor=#0e8088;rotation=-90;" vertex="1" parent="1">
          <mxGeometry x="1029" y="700" width="110" height="110" as="geometry" />
        </mxCell>
        <mxCell id="xSST-Lpuv2nntPSCbOYB-50" value="" style="verticalLabelPosition=bottom;html=1;verticalAlign=top;align=center;shape=mxgraph.floorplan.wallCorner;fillColor=strokeColor;rotation=90;" vertex="1" parent="1">
          <mxGeometry x="169.75" y="498" width="29.5" height="159" as="geometry" />
        </mxCell>
        <mxCell id="xSST-Lpuv2nntPSCbOYB-51" value="" style="verticalLabelPosition=bottom;html=1;verticalAlign=top;align=center;shape=mxgraph.floorplan.wallCorner;fillColor=strokeColor;direction=north;fontStyle=1;rotation=-90;" vertex="1" parent="1">
          <mxGeometry x="167.25" y="722.75" width="34.5" height="160" as="geometry" />
        </mxCell>
        <mxCell id="xSST-Lpuv2nntPSCbOYB-52" value="" style="verticalLabelPosition=bottom;html=1;verticalAlign=top;align=center;shape=mxgraph.floorplan.doorLeft;aspect=fixed;rotation=-90;" vertex="1" parent="1">
          <mxGeometry x="259" y="702" width="80" height="85" as="geometry" />
        </mxCell>
        <mxCell id="xSST-Lpuv2nntPSCbOYB-53" value="" style="verticalLabelPosition=bottom;html=1;verticalAlign=top;align=center;shape=mxgraph.floorplan.wall;fillColor=strokeColor;rotation=90;" vertex="1" parent="1">
          <mxGeometry x="244" y="684" width="30" height="10" as="geometry" />
        </mxCell>
        <mxCell id="xSST-Lpuv2nntPSCbOYB-54" value="" style="verticalLabelPosition=bottom;html=1;verticalAlign=top;align=center;shape=mxgraph.floorplan.doorRight;aspect=fixed;rotation=-90;" vertex="1" parent="1">
          <mxGeometry x="259" y="590" width="80" height="85" as="geometry" />
        </mxCell>
        <mxCell id="xSST-Lpuv2nntPSCbOYB-55" value="" style="verticalLabelPosition=bottom;html=1;verticalAlign=top;align=center;shape=mxgraph.floorplan.wall;fillColor=strokeColor;" vertex="1" parent="1">
          <mxGeometry x="109" y="684" width="150" height="10" as="geometry" />
        </mxCell>
        <mxCell id="xSST-Lpuv2nntPSCbOYB-56" value="" style="verticalLabelPosition=bottom;html=1;verticalAlign=top;align=center;shape=mxgraph.floorplan.toilet;rotation=-90;fillColor=#bac8d3;strokeColor=#23445d;" vertex="1" parent="1">
          <mxGeometry x="117.25" y="617" width="50" height="67" as="geometry" />
        </mxCell>
        <mxCell id="xSST-Lpuv2nntPSCbOYB-57" value="" style="verticalLabelPosition=bottom;html=1;verticalAlign=top;align=center;shape=mxgraph.floorplan.toilet;rotation=-90;fillColor=#bac8d3;strokeColor=#23445d;" vertex="1" parent="1">
          <mxGeometry x="117.25" y="694" width="50" height="67" as="geometry" />
        </mxCell>
        <mxCell id="xSST-Lpuv2nntPSCbOYB-58" value="" style="verticalLabelPosition=bottom;html=1;verticalAlign=top;align=center;shape=mxgraph.floorplan.sink_1;fillColor=#bac8d3;strokeColor=#23445d;" vertex="1" parent="1">
          <mxGeometry x="189" y="573" width="40" height="35" as="geometry" />
        </mxCell>
        <mxCell id="xSST-Lpuv2nntPSCbOYB-59" value="" style="verticalLabelPosition=bottom;html=1;verticalAlign=top;align=center;shape=mxgraph.floorplan.sink_1;rotation=-180;fillColor=#bac8d3;strokeColor=#23445d;" vertex="1" parent="1">
          <mxGeometry x="189" y="775" width="40" height="35" as="geometry" />
        </mxCell>
        <mxCell id="xSST-Lpuv2nntPSCbOYB-68" value="" style="verticalLabelPosition=bottom;html=1;verticalAlign=top;align=center;shape=mxgraph.floorplan.doorDouble;aspect=fixed;rotation=90;" vertex="1" parent="1">
          <mxGeometry x="-16" y="412" width="160" height="85" as="geometry" />
        </mxCell>
        <mxCell id="xSST-Lpuv2nntPSCbOYB-70" value="" style="verticalLabelPosition=bottom;html=1;verticalAlign=top;align=center;shape=mxgraph.floorplan.window;" vertex="1" parent="1">
          <mxGeometry x="859" y="150" width="120" height="10" as="geometry" />
        </mxCell>
        <mxCell id="xSST-Lpuv2nntPSCbOYB-72" value="" style="verticalLabelPosition=bottom;html=1;verticalAlign=top;align=center;shape=mxgraph.floorplan.window;" vertex="1" parent="1">
          <mxGeometry x="699" y="150" width="120" height="10" as="geometry" />
        </mxCell>
        <mxCell id="xSST-Lpuv2nntPSCbOYB-73" value="" style="verticalLabelPosition=bottom;html=1;verticalAlign=top;align=center;shape=mxgraph.floorplan.elevator;" vertex="1" parent="1">
          <mxGeometry x="899" y="390" width="100" height="100" as="geometry" />
        </mxCell>
        <mxCell id="xSST-Lpuv2nntPSCbOYB-75" value="" style="group" vertex="1" connectable="0" parent="1">
          <mxGeometry x="359" y="580" width="220" height="220" as="geometry" />
        </mxCell>
        <mxCell id="xSST-Lpuv2nntPSCbOYB-76" value="" style="verticalLabelPosition=bottom;html=1;verticalAlign=top;align=center;shape=mxgraph.floorplan.desk_corner;fillColor=#b0e3e6;strokeColor=#0e8088;" vertex="1" parent="xSST-Lpuv2nntPSCbOYB-75">
          <mxGeometry x="110" y="110" width="110" height="110" as="geometry" />
        </mxCell>
        <mxCell id="xSST-Lpuv2nntPSCbOYB-77" value="" style="verticalLabelPosition=bottom;html=1;verticalAlign=top;align=center;shape=mxgraph.floorplan.desk_corner;fillColor=#b0e3e6;strokeColor=#0e8088;rotation=-180;" vertex="1" parent="xSST-Lpuv2nntPSCbOYB-75">
          <mxGeometry width="110" height="110" as="geometry" />
        </mxCell>
        <mxCell id="xSST-Lpuv2nntPSCbOYB-78" value="" style="verticalLabelPosition=bottom;html=1;verticalAlign=top;align=center;shape=mxgraph.floorplan.desk_corner;fillColor=#b0e3e6;strokeColor=#0e8088;rotation=-90;" vertex="1" parent="xSST-Lpuv2nntPSCbOYB-75">
          <mxGeometry x="110" width="110" height="110" as="geometry" />
        </mxCell>
        <mxCell id="xSST-Lpuv2nntPSCbOYB-79" value="" style="verticalLabelPosition=bottom;html=1;verticalAlign=top;align=center;shape=mxgraph.floorplan.desk_corner;fillColor=#b0e3e6;strokeColor=#0e8088;rotation=90;" vertex="1" parent="xSST-Lpuv2nntPSCbOYB-75">
          <mxGeometry y="110" width="110" height="110" as="geometry" />
        </mxCell>
        <mxCell id="xSST-Lpuv2nntPSCbOYB-80" value="" style="group" vertex="1" connectable="0" parent="1">
          <mxGeometry x="579" y="580" width="220" height="220" as="geometry" />
        </mxCell>
        <mxCell id="xSST-Lpuv2nntPSCbOYB-81" value="" style="verticalLabelPosition=bottom;html=1;verticalAlign=top;align=center;shape=mxgraph.floorplan.desk_corner;fillColor=#b0e3e6;strokeColor=#0e8088;" vertex="1" parent="xSST-Lpuv2nntPSCbOYB-80">
          <mxGeometry x="110" y="110" width="110" height="110" as="geometry" />
        </mxCell>
        <mxCell id="xSST-Lpuv2nntPSCbOYB-82" value="" style="verticalLabelPosition=bottom;html=1;verticalAlign=top;align=center;shape=mxgraph.floorplan.desk_corner;fillColor=#b0e3e6;strokeColor=#0e8088;rotation=-180;" vertex="1" parent="xSST-Lpuv2nntPSCbOYB-80">
          <mxGeometry width="110" height="110" as="geometry" />
        </mxCell>
        <mxCell id="xSST-Lpuv2nntPSCbOYB-83" value="" style="verticalLabelPosition=bottom;html=1;verticalAlign=top;align=center;shape=mxgraph.floorplan.desk_corner;fillColor=#b0e3e6;strokeColor=#0e8088;rotation=-90;" vertex="1" parent="xSST-Lpuv2nntPSCbOYB-80">
          <mxGeometry x="110" width="110" height="110" as="geometry" />
        </mxCell>
        <mxCell id="xSST-Lpuv2nntPSCbOYB-84" value="" style="verticalLabelPosition=bottom;html=1;verticalAlign=top;align=center;shape=mxgraph.floorplan.desk_corner;fillColor=#b0e3e6;strokeColor=#0e8088;rotation=90;" vertex="1" parent="xSST-Lpuv2nntPSCbOYB-80">
          <mxGeometry y="110" width="110" height="110" as="geometry" />
        </mxCell>
        <mxCell id="xSST-Lpuv2nntPSCbOYB-86" value="" style="verticalLabelPosition=bottom;html=1;verticalAlign=top;align=center;shape=mxgraph.floorplan.doorRight;aspect=fixed;rotation=90;" vertex="1" parent="1">
          <mxGeometry x="734" y="498" width="80" height="85" as="geometry" />
        </mxCell>
        <mxCell id="xSST-Lpuv2nntPSCbOYB-88" value="" style="verticalLabelPosition=bottom;html=1;verticalAlign=top;align=center;shape=mxgraph.floorplan.chair;shadow=0;rotation=45;fillColor=#fad9d5;strokeColor=#ae4132;" vertex="1" parent="1">
          <mxGeometry x="910" y="683" width="40" height="52" as="geometry" />
        </mxCell>
        <mxCell id="xSST-Lpuv2nntPSCbOYB-89" value="" style="verticalLabelPosition=bottom;html=1;verticalAlign=top;align=center;shape=mxgraph.floorplan.chair;shadow=0;direction=west;rotation=45;fillColor=#fad9d5;strokeColor=#ae4132;" vertex="1" parent="1">
          <mxGeometry x="848" y="745" width="40" height="52" as="geometry" />
        </mxCell>
        <mxCell id="xSST-Lpuv2nntPSCbOYB-90" value="" style="verticalLabelPosition=bottom;html=1;verticalAlign=top;align=center;shape=mxgraph.floorplan.chair;shadow=0;direction=north;rotation=45;fillColor=#fad9d5;strokeColor=#ae4132;" vertex="1" parent="1">
          <mxGeometry x="842" y="689" width="52" height="40" as="geometry" />
        </mxCell>
        <mxCell id="xSST-Lpuv2nntPSCbOYB-91" value="" style="verticalLabelPosition=bottom;html=1;verticalAlign=top;align=center;shape=mxgraph.floorplan.chair;shadow=0;direction=south;rotation=45;fillColor=#fad9d5;strokeColor=#ae4132;" vertex="1" parent="1">
          <mxGeometry x="904" y="751" width="52" height="40" as="geometry" />
        </mxCell>
        <mxCell id="xSST-Lpuv2nntPSCbOYB-92" value="" style="shape=ellipse;shadow=0;html=1;rotation=45;fillColor=#fad9d5;strokeColor=#ae4132;" vertex="1" parent="1">
          <mxGeometry x="849" y="690" width="100" height="100" as="geometry" />
        </mxCell>
        <mxCell id="xSST-Lpuv2nntPSCbOYB-34" value="" style="verticalLabelPosition=bottom;html=1;verticalAlign=top;align=center;shape=mxgraph.floorplan.desk_corner;fillColor=#b0e3e6;strokeColor=#0e8088;rotation=-180;" vertex="1" parent="1">
          <mxGeometry x="889" y="160" width="110" height="110" as="geometry" />
        </mxCell>
        <mxCell id="xSST-Lpuv2nntPSCbOYB-95" value="" style="verticalLabelPosition=bottom;html=1;verticalAlign=top;align=center;shape=mxgraph.floorplan.copier;rotation=90;" vertex="1" parent="1">
          <mxGeometry x="943.5" y="315" width="71" height="40" as="geometry" />
        </mxCell>
        <mxCell id="xSST-Lpuv2nntPSCbOYB-97" value="" style="rounded=0;whiteSpace=wrap;html=1;fillColor=#b0e3e6;strokeColor=#0e8088;" vertex="1" parent="1">
          <mxGeometry x="818" y="241" width="70" height="29" as="geometry" />
        </mxCell>
        <mxCell id="xSST-Lpuv2nntPSCbOYB-98" value="" style="rounded=0;whiteSpace=wrap;html=1;fillColor=#b0e3e6;strokeColor=#0e8088;rotation=90;" vertex="1" parent="1">
          <mxGeometry x="1008.5" y="650" width="70" height="29" as="geometry" />
        </mxCell>
      </root>
    </mxGraphModel>
  </diagram>
</mxfile>
